HIERARCHY
ROOT hip
{
  OFFSET 0 0 0
  CHANNELS 6 Xposition Yposition Zposition Zrotation Yrotation Xrotation
  JOINT abdomen
  {
    OFFSET 0 20.6881 -0.73152
    CHANNELS 3 Zrotation Xrotation Yrotation
    JOINT chest
    {
      OFFSET 0 11.7043 -0.48768
      CHANNELS 3 Zrotation Xrotation Yrotation
      JOINT neck
      {
        OFFSET 0 22.1894 -2.19456
        CHANNELS 3 Zrotation Xrotation Yrotation
        JOINT head
        {
          OFFSET -0.24384 7.07133 1.2192
          CHANNELS 3 Zrotation Xrotation Yrotation
          JOINT leftEye
          {
            OFFSET 4.14528 8.04674 8.04672
            CHANNELS 3 Zrotation Xrotation Yrotation
            End Site
            {
              OFFSET 1 0 0
            }
          }
          JOINT rightEye
          {
            OFFSET -3.6576 8.04674 8.04672
            CHANNELS 3 Zrotation Xrotation Yrotation
            End Site
            {
              OFFSET 1 0 0
            }
          }
        }
      }
      JOINT rCollar
      {
        OFFSET -2.68224 19.2634 -4.8768
        CHANNELS 3 Zrotation Xrotation Yrotation
        JOINT rShldr
        {
          OFFSET -8.77824 -1.95073 1.46304
          CHANNELS 3 Zrotation Xrotation Yrotation
          JOINT rForeArm
          {
            OFFSET -28.1742 -1.7115 0.48768
            CHANNELS 3 Zrotation Xrotation Yrotation
            JOINT rHand
            {
              OFFSET -22.5879 0.773209 7.07136
              CHANNELS 3 Zrotation Xrotation Yrotation
              JOINT rThumb1
              {
                OFFSET -1.2192 -0.487915 3.41376
                CHANNELS 3 Zrotation Xrotation Yrotation
                JOINT rThumb2
                {
                  OFFSET -3.37035 -0.52449 3.41376
                  CHANNELS 3 Zrotation Xrotation Yrotation
                  End Site
                  {
                    OFFSET -1.78271 -1.18214 1.43049
                  }
                }
              }
              JOINT rIndex1
              {
                OFFSET -7.75947 0.938293 5.60832
                CHANNELS 3 Zrotation Xrotation Yrotation
                JOINT rIndex2
                {
                  OFFSET -2.54057 -0.884171 1.56538
                  CHANNELS 3 Zrotation Xrotation Yrotation
                  End Site
                  {
                    OFFSET -1.62519 -0.234802 1.16502
                  }
                }
              }
              JOINT rMid1
              {
                OFFSET -8.24714 1.18213 3.41376
                CHANNELS 3 Zrotation Xrotation Yrotation
                JOINT rMid2
                {
                  OFFSET -3.10165 -0.590103 1.0647
                  CHANNELS 3 Zrotation Xrotation Yrotation
                  End Site
                  {
                    OFFSET -2.48547 -0.328903 0.83742
                  }
                }
              }
              JOINT rRing1
              {
                OFFSET -8.82822 0.546677 1.51678
                CHANNELS 3 Zrotation Xrotation Yrotation
                JOINT rRing2
                {
                  OFFSET -2.60934 -0.819778 -0.0198488
                  CHANNELS 3 Zrotation Xrotation Yrotation
                  End Site
                  {
                    OFFSET -2.33842 -0.294052 0.168128
                  }
                }
              }
              JOINT rPinky1
              {
                OFFSET -8.27202 -0.0477905 -0.4584
                CHANNELS 3 Zrotation Xrotation Yrotation
                JOINT rPinky2
                {
                  OFFSET -1.82734 -0.647385 -0.700984
                  CHANNELS 3 Zrotation Xrotation Yrotation
                  End Site
                  {
                    OFFSET -1.69225 -0.51767 -0.607171
                  }
                }
              }
            }
          }
        }
      }
      JOINT lCollar
      {
        OFFSET 2.68224 19.2634 -4.8768
        CHANNELS 3 Zrotation Xrotation Yrotation
        JOINT lShldr
        {
          OFFSET 8.77824 -1.95073 1.46304
          CHANNELS 3 Zrotation Xrotation Yrotation
          JOINT lForeArm
          {
            OFFSET 28.1742 -1.7115 0.48768
            CHANNELS 3 Zrotation Xrotation Yrotation
            JOINT lHand
            {
              OFFSET 22.5879 0.773209 7.07136
              CHANNELS 3 Zrotation Xrotation Yrotation
              JOINT lThumb1
              {
                OFFSET 1.2192 -0.487915 3.41376
                CHANNELS 3 Zrotation Xrotation Yrotation
                JOINT lThumb2
                {
                  OFFSET 3.37035 -0.52449 3.41376
                  CHANNELS 3 Zrotation Xrotation Yrotation
                  End Site
                  {
                    OFFSET 1.78271 -1.18214 1.43049
                  }
                }
              }
              JOINT lIndex1
              {
                OFFSET 7.75947 0.938293 5.60832
                CHANNELS 3 Zrotation Xrotation Yrotation
                JOINT lIndex2
                {
                  OFFSET 2.54057 -0.884171 1.56538
                  CHANNELS 3 Zrotation Xrotation Yrotation
                  End Site
                  {
                    OFFSET 1.62519 -0.234802 1.16502
                  }
                }
              }
              JOINT lMid1
              {
                OFFSET 8.24714 1.18213 3.41376
                CHANNELS 3 Zrotation Xrotation Yrotation
                JOINT lMid2
                {
                  OFFSET 3.10165 -0.590103 1.0647
                  CHANNELS 3 Zrotation Xrotation Yrotation
                  End Site
                  {
                    OFFSET 2.48547 -0.328903 0.83742
                  }
                }
              }
              JOINT lRing1
              {
                OFFSET 8.82822 0.546677 1.51678
                CHANNELS 3 Zrotation Xrotation Yrotation
                JOINT lRing2
                {
                  OFFSET 2.60934 -0.819778 -0.0198488
                  CHANNELS 3 Zrotation Xrotation Yrotation
                  End Site
                  {
                    OFFSET 2.33842 -0.294052 0.168128
                  }
                }
              }
              JOINT lPinky1
              {
                OFFSET 8.27202 -0.0477905 -0.4584
                CHANNELS 3 Zrotation Xrotation Yrotation
                JOINT lPinky2
                {
                  OFFSET 1.82734 -0.647385 -0.700984
                  CHANNELS 3 Zrotation Xrotation Yrotation
                  End Site
                  {
                    OFFSET 1.69225 -0.51767 -0.607171
                  }
                }
              }
            }
          }
        }
      }
    }
  }
  JOINT rButtock
  {
    OFFSET -8.77824 4.35084 1.2192
    CHANNELS 3 Zrotation Xrotation Yrotation
    JOINT rThigh
    {
      OFFSET 0 -1.70687 -2.19456
      CHANNELS 3 Zrotation Xrotation Yrotation
      JOINT rShin
      {
        OFFSET 0 -36.8199 0.73152
        CHANNELS 3 Zrotation Xrotation Yrotation
        JOINT rFoot
        {
          OFFSET 0.73152 -45.1104 -5.12064
          CHANNELS 3 Zrotation Xrotation Yrotation
          End Site
          {
            OFFSET -1.1221 -3.69964 12.103
          }
        }
      }
    }
  }
  JOINT lButtock
  {
    OFFSET 8.77824 4.35084 1.2192
    CHANNELS 3 Zrotation Xrotation Yrotation
    JOINT lThigh
    {
      OFFSET 0 -1.70687 -2.19456
      CHANNELS 3 Zrotation Xrotation Yrotation
      JOINT lShin
      {
        OFFSET 0 -36.8199 0.73152
        CHANNELS 3 Zrotation Xrotation Yrotation
        JOINT lFoot
        {
          OFFSET -0.73152 -45.1104 -5.12064
          CHANNELS 3 Zrotation Xrotation Yrotation
          End Site
          {
            OFFSET 1.1221 -3.69964 12.103
          }
        }
      }
    }
  }
}
MOTION
Frames:	5
Frame Time:	0.00833333
22.3105 108.457 -69.9804 -9.5579 63.53 -10.1949 -1.23494 2.24399 -8.28631 1.78248 -10.5681 -2.3027 -18.5627 14.3635 -13.5646 18.9643 -34.734 -20.8155 -0.0 0.0 0.0 -0.0 0.0 0.0 -7.77702e-14 -1.05131e-13 -4.33634e-13 36.6005 -48.1812 94.5064 -25.8371 -23.0007 56.1895 -0.00484231 1.01195 0.142827 2.05908e-09 -4.2544e-09 -1.81381e-09 3.5531e-09 -7.35172e-09 -3.14337e-09 2.05908e-09 -4.2544e-09 -1.81382e-09 7.73091 5.47488 0.417314 2.05908e-09 -4.2544e-09 -1.81381e-09 2.90554 0.965183 0.102902 2.05909e-09 -4.2544e-09 -1.81381e-09 10.2786 0.731801 0.0259123 2.05908e-09 -4.2544e-09 -1.8138e-09 2.22167 -0.733487 -0.20892 -7.79377e-14 -1.05123e-13 -4.33856e-13 -34.4324 -41.6658 -116.127 14.1108 -7.0447 -25.7776 2.81734 -42.1585 7.30821 8.92022e-10 7.2883e-10 -1.69434e-09 1.5909e-09 1.26189e-09 -2.90107e-09 8.92018e-10 7.28842e-10 -1.69431e-09 -7.73091 5.47488 -0.417314 8.92021e-10 7.28831e-10 -1.69433e-09 -2.90554 0.965183 -0.102902 8.92012e-10 7.2883e-10 -1.69434e-09 -10.2786 0.731801 -0.0259123 8.92024e-10 7.28831e-10 -1.69434e-09 -2.22167 -0.733487 0.20892 -2.03217e-16 0.0 -3.88251e-19 1.5257 -14.4831 4.07446 -0.233193 29.0546 0.17494 3.73586 31.5587 -8.92631 2.03217e-16 0.0 3.88251e-19 10.1031 -13.8768 -2.47837 0.11873 31.2028 -0.515426 2.23614 27.618 -4.97539
22.1412 109.486 -69.3623 -10.2728 64.0243 -11.0687 -1.14071 2.49023 -8.17684 1.75488 -10.6592 -2.27415 -18.7262 14.4663 -13.658 19.1763 -34.7098 -20.965 -0.0 0.0 0.0 -0.0 0.0 0.0 -1.03307e-13 -1.18481e-13 -5.1515e-13 36.5476 -49.3737 95.5345 -25.3097 -21.7771 54.0693 -0.00995053 2.8469 0.400438 1.80381e-09 -4.37575e-09 -1.90118e-09 3.10995e-09 -7.56047e-09 -3.2949e-09 1.80381e-09 -4.37575e-09 -1.90118e-09 7.73091 5.47488 0.417314 1.80381e-09 -4.37575e-09 -1.90117e-09 2.90554 0.965183 0.102902 1.80382e-09 -4.37575e-09 -1.90117e-09 10.2786 0.731801 0.0259123 1.80381e-09 -4.37575e-09 -1.90116e-09 2.22167 -0.733487 -0.20892 -1.03486e-13 -1.18472e-13 -5.15349e-13 -34.3866 -41.996 -116.423 13.8728 -6.85228 -25.2986 2.6468 -41.124 7.04826 5.57472e-10 9.41667e-10 -1.90008e-09 1.02073e-09 1.63634e-09 -3.26905e-09 5.57468e-10 9.41681e-10 -1.90005e-09 -7.73091 5.47488 -0.417314 5.57471e-10 9.41668e-10 -1.90008e-09 -2.90554 0.965183 -0.102902 5.5746e-10 9.41667e-10 -1.90009e-09 -10.2786 0.731801 -0.0259123 5.57475e-10 9.41668e-10 -1.90009e-09 -2.22167 -0.733487 0.20892 -2.03217e-16 0.0 -3.88251e-19 2.01993 -14.3176 3.66985 -0.238148 29.2813 0.158053 4.04167 30.8069 -9.90129 2.03217e-16 0.0 3.88251e-19 9.96756 -13.6511 -2.20256 0.125565 31.5613 -0.5171 2.1996 26.6711 -4.99942
21.9827 110.442 -68.7334 -11.0285 64.5492 -11.9133 -1.04739 2.47699 -8.12217 1.75165 -10.643 -2.25824 -18.9044 14.552 -13.773 19.2887 -34.6745 -21.1834 -0.0 0.0 0.0 -0.0 0.0 0.0 -1.09095e-13 -1.70371e-14 -3.95918e-13 36.5047 -50.4654 96.6227 -24.6635 -20.4075 51.6431 -0.0268392 4.89 0.688726 1.0274e-09 -3.21359e-09 -1.6618e-09 1.76803e-09 -5.55124e-09 -2.87669e-09 1.0274e-09 -3.21359e-09 -1.6618e-09 7.73091 5.47488 0.417314 1.0274e-09 -3.21359e-09 -1.6618e-09 2.90554 0.965183 0.102902 1.0274e-09 -3.21359e-09 -1.6618e-09 10.2786 0.731801 0.0259123 1.0274e-09 -3.21359e-09 -1.66179e-09 2.22167 -0.733487 -0.20892 -1.0927e-13 -1.70312e-14 -3.96098e-13 -34.0688 -42.2681 -116.321 13.7302 -6.73516 -25.0203 2.56078 -40.5638 6.91289 6.41654e-11 8.65704e-10 -1.5828e-09 1.60324e-10 1.51032e-09 -2.7367e-09 6.41605e-11 8.65716e-10 -1.58278e-09 -7.73091 5.47488 -0.417314 6.41643e-11 8.65704e-10 -1.58279e-09 -2.90554 0.965183 -0.102902 6.41524e-11 8.65704e-10 -1.5828e-09 -10.2786 0.731801 -0.0259123 6.41689e-11 8.65704e-10 -1.58281e-09 -2.22167 -0.733487 0.20892 -2.03217e-16 0.0 -3.88251e-19 2.53728 -14.2011 3.45696 -0.239633 29.3162 0.148696 4.1615 29.9402 -10.5394 2.03217e-16 0.0 3.88251e-19 9.91485 -13.5214 -1.83863 0.131686 31.8425 -0.515933 2.05702 25.5446 -4.79301
21.8319 111.324 -68.1031 -11.7933 65.1067 -12.698 -0.95388 2.26652 -8.10007 1.76479 -10.5287 -2.25001 -19.094 14.6191 -13.9034 19.3327 -34.6142 -21.4501 -0.0 0.0 0.0 -0.0 0.0 0.0 -1.06486e-13 1.6022e-13 -1.5995e-13 36.4403 -51.4834 97.7274 -23.8475 -18.8179 48.9817 -0.0605574 7.0821 1.0011 -1.00321e-10 -1.23913e-09 -1.27268e-09 -1.79357e-10 -2.13893e-09 -2.19603e-09 -1.00319e-10 -1.23913e-09 -1.27268e-09 7.73091 5.47488 0.417314 -1.00323e-10 -1.23913e-09 -1.27268e-09 2.90554 0.965183 0.102902 -1.00316e-10 -1.23913e-09 -1.27268e-09 10.2786 0.731801 0.0259123 -1.00321e-10 -1.23913e-09 -1.27267e-09 2.22167 -0.733487 -0.20892 -1.06643e-13 1.6022e-13 -1.60112e-13 -33.4908 -42.4823 -115.859 13.6807 -6.69612 -24.9209 2.53186 -40.3813 6.86826 -5.65157e-10 6.52645e-10 -1.00257e-09 -9.41985e-10 1.14558e-09 -1.75289e-09 -5.65164e-10 6.52652e-10 -1.00255e-09 -7.73091 5.47488 -0.417314 -5.65158e-10 6.52643e-10 -1.00256e-09 -2.90554 0.965183 -0.102902 -5.65171e-10 6.52643e-10 -1.00257e-09 -10.2786 0.731801 -0.0259123 -5.65153e-10 6.52643e-10 -1.00257e-09 -2.22167 -0.733487 0.20892 -2.03217e-16 0.0 -3.88251e-19 3.07511 -14.0948 3.3988 -0.238709 29.1843 0.142448 4.17982 28.9309 -11.0369 2.03217e-16 0.0 3.88251e-19 9.92843 -13.4335 -1.42366 0.136898 32.0485 -0.511664 1.83124 24.2412 -4.37822
21.6839 112.132 -67.4748 -12.566 65.6947 -13.4368 -0.863515 1.95043 -8.09838 1.73978 -10.3829 -2.25055 -19.2581 14.6789 -14.0324 19.3577 -34.5192 -21.7236 -0.0 0.0 0.0 -0.0 0.0 0.0 -1.0845e-13 3.34495e-13 6.61794e-14 36.5013 -52.4345 98.9402 -22.871 -17.1108 46.1499 -0.110002 9.38225 1.33177 -1.17607e-09 7.13057e-10 -9.35643e-10 -2.03795e-09 1.23506e-09 -1.60537e-09 -1.17607e-09 7.13059e-10 -9.3565e-10 7.73091 5.47488 0.417314 -1.17607e-09 7.13059e-10 -9.35647e-10 2.90554 0.965183 0.102902 -1.17607e-09 7.1306e-10 -9.35647e-10 10.2786 0.731801 0.0259123 -1.17607e-09 7.13061e-10 -9.3564e-10 2.22167 -0.733487 -0.20892 -1.08588e-13 3.34489e-13 6.60295e-14 -32.7793 -42.6171 -115.198 13.6891 -6.70479 -24.9336 2.54139 -40.457 6.88504 -1.12408e-09 4.80093e-10 -5.15002e-10 -1.91949e-09 8.50887e-10 -9.26616e-10 -1.12408e-09 4.80095e-10 -5.14994e-10 -7.73091 5.47488 -0.417314 -1.12408e-09 4.80091e-10 -5.14992e-10 -2.90554 0.965183 -0.102902 -1.12409e-09 4.80091e-10 -5.14997e-10 -10.2786 0.731801 -0.0259123 -1.12407e-09 4.80091e-10 -5.15e-10 -2.22167 -0.733487 0.20892 -2.03217e-16 0.0 -3.88251e-19 3.59823 -14.0073 3.42671 -0.236467 28.9775 0.13976 4.10808 27.8718 -11.3722 2.03217e-16 0.0 3.88251e-19 9.96776 -13.3809 -1.03008 0.141309 32.2075 -0.506596 1.59272 22.8458 -3.89883
